<svg xmlns="http://www.w3.org/2000/svg"  viewBox="0 0 100 100" width="100px" height="100px" baseProfile="basic"><path fill="#74953c" d="M84.485,24.397c-0.25-0.945-1.284-1.434-2.312-0.988c-5.059,2.193-10.937,3.919-16.328,2.737	c-1.949-1.018-3.895-2.043-5.842-3.065c-0.894-0.469-2.076-0.082-2.345,0.954c-1.797,6.941-3.767,13.835-5.904,20.679	c-0.681,0.539-0.995,1.567-0.205,2.363c6.708,6.754,16.807,5.191,24.943,2.416c0.222-0.076,0.403-0.186,0.555-0.316	c0.811,0.284,1.78-0.277,2.075-1.101c2.558-7.134,4.738-14.395,6.53-21.759C85.895,25.322,85.251,24.612,84.485,24.397z"/><path fill="#74953c" d="M82.806,23.711c-1,1.328-2.001,2.656-3.001,3.984c-0.232,0.309-0.258,0.876-0.161,1.23	c0.102,0.37,0.388,0.771,0.733,0.954c0.37,0.196,0.819,0.294,1.23,0.161c0.127-0.054,0.254-0.107,0.381-0.161	c0.24-0.142,0.431-0.333,0.573-0.573c1-1.328,2.001-2.656,3.001-3.984c0.232-0.309,0.258-0.876,0.161-1.23	c-0.102-0.37-0.388-0.771-0.733-0.954c-0.37-0.196-0.819-0.294-1.23-0.161c-0.127,0.054-0.254,0.107-0.381,0.161	C83.139,23.28,82.948,23.471,82.806,23.711L82.806,23.711z"/><path fill="#f2b71f" d="M74.517,54.488c-3.31,1.458-6.949,2.117-10.56,1.965c-3.732-0.157-7.378-1.341-10.98-2.245	c-0.289-0.536-0.791-0.975-1.34-1.126c-1.209-0.332-2.193,0.413-2.618,1.486c-1.669,4.219-3.107,8.525-4.282,12.908	c-0.598,2.232-1.228,4.51-1.599,6.794c-0.364,2.242,0.631,3.896,2.549,5.041c5.242,3.129,11.631,3.137,17.396,1.387	c0.085,0.01,0.168,0.025,0.259,0.024c2.085-0.02,4.074-0.758,5.627-2.16c0.004-0.003,0.006-0.007,0.01-0.01	c0.716,0.107,1.491-0.203,1.752-1.097c1.923-6.589,3.967-13.141,6.131-19.654c0.143-0.431,0.095-0.814-0.069-1.125	C77.435,55.578,76.062,53.807,74.517,54.488z"/><path fill="#316db0" d="M44.51,48.395c-1.56-1.45-3.593-2.878-5.692-3.033c-0.105-0.047-0.206-0.098-0.313-0.141	c-1.226-0.495-2.546-0.67-3.871-0.723c-0.107-0.009-0.214-0.021-0.322-0.027c-1.153-0.223-2.322-0.363-3.503-0.39	c-3.645-0.083-7.041,1.04-10.302,2.517c-1.545,0.102-2.957,0.958-3.804,2.347c-0.417,0.683-0.673,1.433-0.857,2.209	c-0.283,0.534-0.498,1.109-0.667,1.687c-0.437,1.495-0.77,3.027-1.149,4.538c-0.352,1.405-0.704,2.809-1.057,4.214	c-0.062,0.112-0.117,0.233-0.16,0.372c-0.861,2.805-1.69,5.619-2.489,8.442c-0.317,1.121,0.796,2.36,1.963,1.963	c1.503-0.511,2.925-1.219,4.442-1.699c1.416-0.448,2.867-0.787,4.335-1.01c1.666-0.254,3.369-0.323,5.064-0.252	c0.097,0.012,0.193,0.03,0.29,0.044c0.235,0.209,0.536,0.376,0.926,0.463c2.556,0.542,4.93,1.617,6.932,3.313	c0.583,0.494,1.34,0.702,2.036,0.539c1.023,0.277,2.216-0.104,2.565-1.424c1.421-5.386,2.842-10.771,4.263-16.157	c0.232-0.821,0.443-1.648,0.654-2.475c0.304-0.761,0.598-1.526,0.853-2.304c0.037-0.112,0.053-0.224,0.06-0.337	C45.297,50.313,45.42,49.24,44.51,48.395z M30.543,48.41c-0.039-0.023-0.079-0.042-0.119-0.063c0.05,0,0.1-0.004,0.151-0.004	C30.564,48.365,30.553,48.388,30.543,48.41z"/><path fill="#de333b" d="M53.746,21.174c0.116-0.565-0.05-1.034-0.35-1.378c-0.061-0.398-0.228-0.796-0.559-1.15	c-3.665-3.927-9.435-4.373-14.523-3.895c-3.772-0.089-7.498,0.701-10.944,2.209c-0.966-0.233-2.044,0.16-2.41,1.455	c-1.802,6.391-3.605,12.783-5.407,19.174c-0.092,0.328-0.094,0.641-0.037,0.934c-0.073,0.098-0.143,0.203-0.189,0.34	c-0.271,0.805-0.543,1.609-0.814,2.414c-0.241,0.715,0.561,1.614,1.309,1.309c0.75-0.306,1.494-0.626,2.234-0.954	c0.009-0.003,0.019,0,0.029-0.004c0.364-0.147,0.735-0.276,1.1-0.421c0.108-0.014,0.22-0.038,0.336-0.077	c1.849-0.619,3.734-1.194,5.651-1.553c3.134-0.269,6.28-0.045,9.357,0.638c1.434,0.476,2.836,1.067,4.209,1.677	c0.527,0.462,1.053,0.925,1.58,1.387c1.075,0.944,3.284,0.765,3.557-0.939c0.013-0.083,0.03-0.165,0.043-0.249	c0.665-1.798,1.139-3.647,1.46-5.529C51.209,31.551,52.67,26.408,53.746,21.174z"/><path d="M27.66,18.089c0,0-0.288,1.372-0.783,3.723c-0.502,2.397-1.168,5.874-2.148,10.158c-0.493,2.141-1.083,4.483-1.832,6.973 c-0.094,0.309-0.188,0.619-0.282,0.932c-0.087,0.288-0.225,0.73-0.211,0.717c-0.074,0.163-0.003,0.362,0.167,0.408 c0.081,0.029,0.165-0.011,0.229-0.053l0.102-0.058l0.452-0.208c0.648-0.311,1.302-0.578,1.985-0.85 c0.818-0.23,1.431-0.493,2.185-0.717c0.723-0.234,1.466-0.448,2.227-0.643c1.522-0.388,3.13-0.682,4.805-0.779 c1.673-0.1,3.408,0.006,5.115,0.346c0.854,0.169,1.696,0.4,2.531,0.664l1.236,0.441l1.331,0.553 c0.094,0.026,0.157,0.101,0.232,0.157l0.157,0.125l0.188,0.138l0.435,0.298l0.93,0.617c0.321,0.215,0.63,0.418,0.996,0.698 c0.065,0.045,0.266,0.223,0.246,0.197c0.026,0.015,0.039,0.04,0.075,0.054c0.056,0.036,0.128,0.071,0.207,0.097 c0.322,0.123,0.75,0.054,0.862-0.046c0.062-0.047,0.084-0.07,0.119-0.158c0.004-0.033,0.011-0.037,0.026-0.09l0.03-0.166 c0.023-0.104,0.023-0.182,0.061-0.267l0.208-0.564c0.462-1.284,0.825-2.586,1.106-3.886l0.102-0.487l0.048-0.244 c0.017-0.107,0.053-0.307,0.119-0.45l0.363-0.958c0.23-0.628,0.457-1.252,0.684-1.87c0.882-2.475,1.647-4.871,2.305-7.153 c0.329-1.141,0.633-2.253,0.912-3.332c0.136-0.539,0.269-1.07,0.401-1.593c0.07-0.267,0.073-0.318,0.063-0.463 c-0.006-0.06-0.022-0.118-0.045-0.175c-0.018-0.037-0.011-0.039-0.055-0.104l-0.187-0.246l-0.06-0.372 c-0.01-0.05-0.023-0.098-0.039-0.146c-0.031-0.096-0.074-0.189-0.128-0.278c-0.084-0.161-0.322-0.38-0.515-0.593 c-0.191-0.219-0.403-0.411-0.618-0.595c-0.207-0.194-0.421-0.374-0.649-0.532c-0.884-0.666-1.82-1.177-2.749-1.549 c-1.862-0.741-3.62-1.043-5.057-1.191c-1.442-0.147-2.581-0.163-3.351-0.16c-0.764,0.012-1.179,0.018-1.179,0.018 s0.411-0.057,1.17-0.161c0.769-0.093,1.908-0.207,3.387-0.21c1.476,0.001,3.31,0.125,5.372,0.737 c1.028,0.31,2.101,0.775,3.15,1.439c0.268,0.158,0.525,0.34,0.777,0.539c0.259,0.19,0.516,0.39,0.753,0.62 c0.238,0.23,0.496,0.409,0.766,0.78c0.125,0.173,0.234,0.363,0.32,0.566c0.043,0.102,0.081,0.206,0.112,0.313l0.032,0.107 l0.057,0.063c0.032,0.042,0.102,0.155,0.143,0.236c0.094,0.178,0.167,0.372,0.211,0.573c0.099,0.378,0.049,0.874-0.008,1.133 c-0.097,0.54-0.195,1.088-0.295,1.644c-0.21,1.114-0.447,2.263-0.713,3.444c-0.532,2.361-1.187,4.844-1.983,7.41 c-0.206,0.641-0.414,1.288-0.624,1.939l-0.327,0.967c-0.003,0.014,0.005-0.016-0.005,0.047l-0.043,0.264L53.172,37.4 c-0.258,1.413-0.614,2.843-1.09,4.265l-0.154,0.449c0,0,0.008-0.035-0.014,0.095c-0.023,0.123-0.062,0.293-0.099,0.436 c-0.168,0.603-0.576,1.207-1.103,1.588c-1.079,0.76-2.272,0.795-3.34,0.469c-0.271-0.087-0.538-0.205-0.796-0.363 c-0.13-0.07-0.254-0.172-0.378-0.266l-0.189-0.149c-0.224-0.169-0.537-0.376-0.837-0.574l-0.944-0.62l-0.495-0.338l-0.333-0.246 l-0.974-0.406l-1.099-0.398c-0.736-0.237-1.472-0.447-2.212-0.603c-1.479-0.313-2.963-0.433-4.434-0.381 c-1.471,0.05-2.926,0.266-4.349,0.577c-0.712,0.156-1.416,0.33-2.111,0.525c-0.675,0.166-1.429,0.448-2.015,0.559 c-0.674,0.234-1.351,0.474-1.99,0.742l-0.517,0.206c-0.289,0.11-0.575,0.254-0.859,0.333c-0.552,0.166-1.075,0.12-1.561-0.147 c-0.473-0.259-0.826-0.699-1.01-1.19c-0.183-0.508-0.152-1.003,0.057-1.56c0.257-0.698,0.511-1.388,0.762-2.069 c0.888-2.388,1.637-4.65,2.294-6.731c1.261-4.063,2.322-7.484,3.072-9.901C27.204,19.366,27.66,18.089,27.66,18.089z"/><path fill="none" d="M19.404,48.618c-0.417,0.683-0.673,1.433-0.857,2.209c-0.829,3.51-1.994,6.938-2.872,10.439 c-0.062,0.112-0.117,0.233-0.16,0.372c-0.861,2.805-1.69,5.619-2.489,8.442c-0.317,1.121,0.796,2.36,1.963,1.963 c1.503-0.511,2.925-1.219,4.442-1.699c1.416-0.448,2.867-0.787,4.335-1.01c4.622-0.704,9.612,0.518,13.212,3.567 c0.583,0.494,1.34,0.702,2.036,0.539c1.023,0.277,2.216-0.104,2.565-1.424c1.813-7.002,3.522-14.069,5.77-20.936 c0.037-0.112,0.053-0.224,0.06-0.337c0.588-0.754,0.711-1.827-0.199-2.673c-3.59-3.335-8.958-4.207-13.7-4.314"/><path d="M19.404,48.618c0,0-0.169,0.288-0.375,0.877c-0.225,0.585-0.356,1.492-0.589,2.672c-0.481,2.361-1.295,5.691-2.313,9.861 c-0.536,2.099-1.113,4.361-1.723,6.751c-0.079,0.303-0.158,0.609-0.238,0.916l-0.121,0.464c-0.015,0.066-0.051,0.182-0.05,0.207 c0.003,0.026-0.012,0.047-0.004,0.074c-0.016,0.193,0.189,0.501,0.395,0.566c0.098,0.041,0.155,0.022,0.228-0.001 c-0.004,0.004,0.085-0.028,0.161-0.058L15,70.859l0.455-0.185c0.628-0.272,1.263-0.548,1.903-0.825 c1.341-0.589,2.819-1.056,4.302-1.411c1.48-0.354,3.094-0.618,4.754-0.633c3.295-0.01,6.761,0.835,9.755,2.769 c0.327,0.203,0.634,0.438,0.949,0.655c0.275,0.219,0.548,0.438,0.818,0.654c0.129,0.099,0.271,0.165,0.404,0.198 c0.067,0.017,0.131,0.025,0.19,0.027l0.087-0.002c-0.016,0.004,0.101-0.015,0.175-0.031l0.242-0.048l0.411,0.094 c0.04,0.005,0.092,0.019,0.121,0.019c0.062,0.005,0.124,0.009,0.179,0c0.111-0.011,0.198-0.038,0.261-0.076 c0.062-0.039,0.111-0.084,0.163-0.165c0.059-0.113,0.075-0.119,0.166-0.474c0.304-1.126,0.605-2.241,0.903-3.344 c0.597-2.201,1.19-4.34,1.785-6.396c0.596-2.056,1.195-4.029,1.802-5.901c0.311-0.928,0.616-1.838,0.914-2.729 c0.155-0.439,0.308-0.874,0.459-1.304l0.23-0.636l0.11-0.307c0.002-0.041,0.012-0.077,0.031-0.116l0.177-0.468 c0.295-0.343,0.398-0.738,0.298-1.08c-0.052-0.175-0.156-0.353-0.311-0.518c-0.212-0.2-0.422-0.398-0.629-0.594 c-0.869-0.76-1.81-1.356-2.739-1.831c-1.867-0.95-3.665-1.44-5.144-1.764c-1.485-0.322-2.671-0.466-3.476-0.557 c-0.799-0.081-1.234-0.125-1.234-0.125s0.438-0.01,1.242-0.028c0.814-0.005,2.016,0,3.555,0.167 c1.536,0.171,3.429,0.482,5.509,1.313c1.036,0.417,2.117,0.973,3.155,1.742c0.255,0.205,0.513,0.412,0.774,0.622 c0.298,0.267,0.572,0.62,0.743,1.05c0.359,0.879,0.128,1.929-0.415,2.639l0.176-0.468c-0.019,0.176-0.047,0.356-0.084,0.532 l-0.091,0.326l-0.182,0.643c-0.12,0.434-0.242,0.872-0.365,1.316c-0.239,0.898-0.483,1.815-0.732,2.75 c-0.49,1.884-0.979,3.868-1.478,5.936c-0.501,2.091-1.015,4.239-1.542,6.436c-0.271,1.114-0.546,2.239-0.823,3.376 c-0.045,0.213-0.194,0.779-0.439,1.174c-0.245,0.427-0.613,0.824-1.052,1.103c-0.439,0.281-0.934,0.437-1.414,0.493 c-0.242,0.031-0.48,0.03-0.716,0.013c-0.121-0.007-0.215-0.026-0.324-0.04c-0.053-0.008-0.016-0.002-0.028-0.003l-0.001,0.001 c-0.007,0.001,0.028-0.002-0.07,0.01c-0.137,0.014-0.274,0.022-0.411,0.021c-0.273-0.002-0.544-0.036-0.806-0.098 c-0.524-0.124-1.012-0.358-1.434-0.674c-0.269-0.214-0.541-0.429-0.815-0.646c-0.263-0.178-0.516-0.374-0.789-0.542 c-2.487-1.612-5.429-2.382-8.254-2.445c-1.412-0.021-2.798,0.156-4.199,0.436c-1.398,0.285-2.703,0.635-3.97,1.122 c-0.662,0.249-1.318,0.496-1.968,0.741l-0.507,0.176l-0.256,0.084c-0.085,0.027-0.155,0.053-0.325,0.094 c-0.58,0.15-1.238,0.07-1.734-0.198c-0.996-0.527-1.568-1.547-1.475-2.654c0.006-0.136,0.044-0.271,0.073-0.404 c0.033-0.133,0.053-0.169,0.08-0.258l0.151-0.458c0.1-0.303,0.199-0.604,0.298-0.904c0.787-2.348,1.532-4.571,2.223-6.633 c1.335-4.014,2.502-7.309,3.224-9.562c0.355-1.129,0.6-2.045,0.901-2.609C19.199,48.879,19.404,48.618,19.404,48.618z"/><path d="M51.719,54.242c0,0-0.387,1.249-1.047,3.376c-0.649,2.179-1.552,5.34-2.445,9.285c-0.439,1.984-0.967,4.147-1.317,6.449 c-0.04,0.281-0.089,0.594-0.113,0.854c-0.024,0.252-0.037,0.505-0.013,0.747c0.029,0.49,0.164,0.946,0.393,1.362 c0.47,0.845,1.311,1.481,2.47,2.013c4.482,2.218,10.464,2.449,16.165,0.995c1.313-0.351,2.677-0.767,3.793-1.305 c0.585-0.282,1.17-0.608,1.769-0.95c0.343-0.187,0.492-0.306,0.708-0.448c0.191-0.169,0.389-0.331,0.562-0.544 c0.718-0.812,1.247-1.942,1.665-3.107c0.424-1.172,0.749-2.399,1.098-3.637c0.365-1.291,0.772-2.406,1.084-3.554 c0.327-1.145,0.625-2.273,0.906-3.369c0.28-1.096,0.54-2.162,0.777-3.191c0.113-0.511,0.225-1.016,0.335-1.512 c0.048-0.243,0.095-0.484,0.142-0.723l0.057-0.337l0.021-0.147c0.001-0.006,0.005-0.038,0.004-0.023 c-0.001,0.026,0.001,0.054,0.007,0.081l0.012,0.041c0.025,0.01,0.156-0.014,0.227-0.031c0.169-0.04,0.332-0.108,0.481-0.201 l-0.627-0.404c0.12-0.137,0.114-0.484-0.077-0.788c-0.191-0.297-0.496-0.506-0.806-0.533c-0.156-0.031-0.319,0.015-0.485,0.058 c-0.24,0.088-0.477,0.175-0.711,0.261c-0.473,0.163-0.934,0.309-1.383,0.436c-1.798,0.507-3.392,0.717-4.69,0.809 c-1.3,0.084-2.308,0.05-2.988,0.008c-0.68-0.042-1.035-0.087-1.035-0.087s0.358-0.005,1.035-0.049 c0.676-0.043,1.672-0.132,2.928-0.357c1.254-0.233,2.771-0.602,4.44-1.254c0.417-0.162,0.843-0.344,1.276-0.54 c0.217-0.103,0.436-0.208,0.659-0.313c0.302-0.127,0.64-0.239,1.005-0.223c0.732-0.001,1.433,0.389,1.884,0.971 c0.435,0.564,0.74,1.483,0.27,2.375l0.016-0.744c0.042,0.101,0.074,0.217,0.091,0.333c0.008,0.058,0.013,0.117,0.014,0.173 l-0.002,0.07l-0.011,0.224l-0.035,0.406c-0.03,0.258-0.06,0.519-0.09,0.781c-0.074,0.516-0.149,1.041-0.225,1.573 c-0.163,1.063-0.351,2.159-0.562,3.288c-0.211,1.13-0.444,2.292-0.715,3.488c-0.256,1.201-0.632,2.442-0.903,3.61 c-0.286,1.22-0.569,2.521-0.999,3.858c-0.434,1.328-0.987,2.738-2.052,4.027c-0.257,0.325-0.576,0.62-0.905,0.909 c-0.343,0.261-0.763,0.546-1.031,0.696c-0.606,0.361-1.242,0.731-1.928,1.073c-1.431,0.703-2.829,1.124-4.311,1.526 c-3.151,0.821-6.348,1.07-9.416,0.841c-3.061-0.264-6.025-1.033-8.547-2.458c-1.238-0.64-2.604-1.668-3.282-3.131 c-0.343-0.723-0.509-1.515-0.505-2.26c-0.008-0.375,0.034-0.736,0.091-1.085c0.057-0.343,0.121-0.622,0.187-0.929 c0.536-2.399,1.239-4.523,1.846-6.466c1.243-3.902,2.484-6.97,3.381-9.067C51.165,55.374,51.719,54.242,51.719,54.242z"/><path d="M60.359,23.708c0,0-0.367,1.958-1.149,5.414c-0.393,1.727-0.892,3.828-1.509,6.242c-0.318,1.216-0.654,2.502-1.007,3.849 c-0.382,1.398-0.782,2.859-1.197,4.375c-0.057,0.092-0.102,0.199-0.175,0.289l-0.096,0.133c-0.013,0.014-0.041,0.069-0.064,0.108 l-0.037,0.037c-0.085,0.149-0.268,0.608-0.295,0.978c-0.05,0.372,0.027,0.804,0.111,0.869c0.041,0.039,0.015,0.025,0.124,0.115 l0.292,0.247l0.586,0.498c0.377,0.353,0.846,0.597,1.268,0.908c1.769,1.129,3.857,1.924,6.139,2.238 c4.577,0.656,9.696-0.279,14.754-1.953c0.28-0.101,0.703-0.207,0.735-0.262c0.235-0.044,0.469-0.088,0.685-0.129 c0.235-0.044,0.469-0.088,0.684-0.128c-0.03,0.012,0.221-0.07,0.276-0.194c0.027-0.043,0.013-0.01,0.051-0.104l0.15-0.416 l0.299-0.828c0.388-1.103,0.771-2.195,1.152-3.278c0.746-2.165,1.451-4.286,2.107-6.352c0.657-2.066,1.27-4.075,1.84-6.014 c0.278-0.967,0.553-1.919,0.822-2.855c0.13-0.466,0.259-0.927,0.387-1.385l0.095-0.341c0.021-0.069,0.029-0.111,0.036-0.16 c0.01-0.093,0.004-0.167-0.023-0.245l0.261-0.82c-0.037-0.029-0.073-0.049-0.115-0.072l-0.063-0.034l0.002-0.001 c0,0,0.009-0.013,0.015-0.028c0.012-0.03,0.025-0.078,0.033-0.129c0.017-0.104,0.013-0.222,0.004-0.272 c-0.011-0.082-0.086-0.236-0.162-0.322c-0.057-0.076-0.134-0.129-0.289-0.19c-0.143-0.05-0.217-0.062-0.326-0.051 c-0.056,0.007-0.073,0.015-0.21,0.066c-0.05,0.01-0.095,0.04-0.14,0.073l-0.313,0.228l-0.307-0.064 c-0.193-0.04-0.388-0.028-0.584,0.039c-0.312,0.119-0.621,0.236-0.926,0.352c-0.623,0.229-1.232,0.445-1.831,0.639 c-1.197,0.391-2.344,0.707-3.429,0.959c-2.174,0.488-4.096,0.697-5.666,0.694c-1.571,0.003-2.782-0.16-3.588-0.323 c-0.806-0.168-1.22-0.286-1.22-0.286s0.429,0.066,1.24,0.141c0.812,0.071,2.016,0.1,3.539-0.057c1.524-0.15,3.36-0.529,5.419-1.181 c1.028-0.333,2.111-0.731,3.241-1.2c0.565-0.234,1.14-0.488,1.728-0.755c0.298-0.139,0.599-0.279,0.904-0.421 c0.423-0.189,0.924-0.272,1.411-0.209l-0.619,0.164c0.145-0.123,0.297-0.241,0.487-0.31c0.094-0.042,0.303-0.15,0.498-0.191 c0.387-0.1,0.846-0.067,1.202,0.039c0.343,0.095,0.757,0.288,1.067,0.61c0.294,0.302,0.506,0.627,0.646,1.072 c0.091,0.319,0.113,0.612,0.094,0.926c-0.029,0.314-0.076,0.656-0.341,1.071l0.088-0.94c0.165,0.346,0.243,0.744,0.231,1.12 c-0.005,0.185-0.032,0.378-0.069,0.538l-0.075,0.349c-0.103,0.468-0.206,0.941-0.31,1.418c-0.223,0.958-0.449,1.933-0.679,2.923 c-0.479,1.985-1.011,4.042-1.602,6.154c-0.589,2.112-1.241,4.279-1.951,6.486c-0.367,1.103-0.737,2.215-1.111,3.339l-0.293,0.842 l-0.148,0.423c-0.063,0.185-0.199,0.491-0.341,0.694c-0.594,0.868-1.505,1.473-2.746,1.444l0,0.001v0.001 c-0.505,0.24-0.74,0.268-1.082,0.394c-5.294,1.746-10.856,2.699-16.039,1.772c-2.577-0.449-4.985-1.48-6.955-2.89 c-0.472-0.38-0.987-0.696-1.399-1.119l-0.635-0.604l-0.313-0.3c-0.1-0.084-0.293-0.313-0.399-0.497 c-0.476-0.873-0.384-1.576-0.299-2.224c0.142-0.658,0.29-1.208,0.82-1.873l0.036-0.044c-0.006,0.007-0.02,0.028-0.01,0.018 l0.029-0.023c0.026-0.014,0.024-0.043,0.037-0.064c0.989-2.837,1.905-5.468,2.728-7.829c0.786-2.315,1.481-4.361,2.06-6.066 C59.714,25.675,60.359,23.708,60.359,23.708z"/></svg>